<?xml version="1.0" encoding="UTF-8"?>
<svg version="1.1" xmlns="http://www.w3.org/2000/svg" width="1024" height="1024">
<path d="M0 0 C337.92 0 675.84 0 1024 0 C1024 337.92 1024 675.84 1024 1024 C686.08 1024 348.16 1024 0 1024 C0 686.08 0 348.16 0 0 Z " fill="#F2F1EE" transform="translate(0,0)"/>
<path d="M0 0 C4.24507751 1.66696946 7.15684355 4.82749434 10.375 7.9375 C16.69653589 13.92575622 23.31025175 19.32616061 30.21582031 24.61865234 C33.2832336 26.99350516 36.29329314 29.43938736 39.3125 31.875 C46.78840568 37.88212735 54.4032843 43.70046398 62.03662109 49.50537109 C74.62101158 59.08528138 87.08174635 68.82661623 99.5546875 78.55078125 C101.05718811 79.72148709 102.55979193 80.89206046 104.0625 82.0625 C104.8057251 82.64153076 105.5489502 83.22056152 106.31469727 83.81713867 C110.68838843 87.21910996 115.08283131 90.59179957 119.49487305 93.94384766 C126.5172082 99.28001752 133.42078372 104.73309891 140.24462891 110.32080078 C148.97552281 117.45832287 157.95764137 124.26255632 167 131 C168.60640342 122.34733968 169.5467764 113.76156053 170.18359375 104.98828125 C170.33675086 102.97452772 170.489912 100.9607745 170.64326382 98.94703579 C170.80284509 96.83954407 170.95990766 94.7318782 171.11627197 92.62414551 C171.60011272 86.11014476 172.10325069 79.59761995 172.60462189 73.08494949 C172.76874472 70.95162975 172.93235159 68.81827091 173.09588623 66.68490601 C176.48737587 22.50276356 176.48737587 22.50276356 180 2 C182 2 182 2 183.375 3.36328125 C184.179375 4.32814453 184.179375 4.32814453 185 5.3125 C187.93749422 8.77017549 190.93724616 12.15244741 194 15.5 C197.4865724 19.32415279 200.94042478 23.17004409 204.328125 27.08203125 C205.53417188 28.46560373 206.75479624 29.8365163 207.984375 31.19921875 C208.95117188 32.27623047 208.95117188 32.27623047 209.9375 33.375 C210.52402344 34.02210938 211.11054688 34.66921875 211.71484375 35.3359375 C213 37 213 37 213 39 C213.66 39 214.32 39 215 39 C216.39325954 40.55240341 217.71380128 42.17029985 219 43.8125 C223.04446129 48.87132779 227.27892356 53.67953685 231.6640625 58.44921875 C233.64118858 60.60818752 235.58167885 62.78897727 237.5 65 C240.28814098 68.20899244 243.13528185 71.35916444 246 74.5 C250.98575729 79.97235522 255.88427147 85.50528894 260.67578125 91.1484375 C266.27225407 97.7301853 271.9561036 104.19631918 277.84375 110.51953125 C281.0621952 113.9763798 284.20944872 117.48040445 287.30078125 121.05078125 C290.81406038 125.08095661 294.41746334 129.03146612 298 133 C299.50028679 134.66640851 301.00028872 136.33307353 302.5 138 C303.24378906 138.82628906 303.98757813 139.65257812 304.75390625 140.50390625 C306.241462 142.15703343 307.72844903 143.81067256 309.21484375 145.46484375 C313.17023592 149.86513065 317.13867198 154.25270376 321.125 158.625 C323.92757381 161.70309566 326.70967875 164.7930187 329.4375 167.9375 C332.39883969 171.34689108 335.44171289 174.67776584 338.5 178 C346.89950979 187.13376224 354.93533669 196.57136243 363 206 C362.34 205.01 361.68 204.02 361 203 C361.22738219 198.92461156 363.93045878 196.21730609 366.375 193.125 C366.81980713 192.55837646 367.26461426 191.99175293 367.72290039 191.40795898 C368.66643986 190.20740509 369.61288306 189.0091284 370.56201172 187.81298828 C371.95545996 186.05615524 373.34052819 184.29309102 374.72265625 182.52734375 C376.55215748 180.19096772 378.3855627 177.85775473 380.22265625 175.52734375 C382.04819608 173.21107428 383.86847276 170.89084873 385.68359375 168.56640625 C391.12194484 161.60871954 396.64769355 154.73065041 402.23388672 147.89111328 C405.55782418 143.80944831 408.80781547 139.68553855 412 135.5 C420.54883852 124.3100569 429.32979224 113.2472726 439 103 C440.14662109 101.77410156 440.14662109 101.77410156 441.31640625 100.5234375 C458.97059393 82.21749008 478.69835442 73.47773168 504.39135742 72.65649414 C528.2291201 72.3295328 549.42768915 80.4282522 568 95 C568.71929688 95.55816406 569.43859375 96.11632812 570.1796875 96.69140625 C577.7682986 102.88034019 589.34428252 114.04192345 591.63671875 123.67578125 C593.30499791 126.51998211 593.94138728 126.51141039 597.03125 127.375 C598.38089844 127.72111328 598.38089844 127.72111328 599.7578125 128.07421875 C603.67643008 129.19314931 607.38452078 130.65335497 611.15625 132.1875 C611.89841263 132.48825439 612.64057526 132.78900879 613.40522766 133.09887695 C615.77186897 134.06176709 618.13603064 135.0305705 620.5 136 C622.15381804 136.67465552 623.80770877 137.34913291 625.46166992 138.0234375 C638.11856276 143.19249072 650.73671424 148.45030766 663.29980469 153.84375 C665.87573391 154.94678805 668.45665404 156.0372364 671.0390625 157.125 C672.50543 157.74947976 673.97159373 158.37443833 675.4375 159 C676.0766333 159.26683594 676.7157666 159.53367187 677.37426758 159.80859375 C680.46119986 161.14087144 682.83374257 162.39117384 685 165 C681.22926773 166.25691076 677.50068758 166.51388545 673.56640625 166.8671875 C672.71315765 166.94649002 671.85990906 167.02579254 670.98080444 167.10749817 C668.17503148 167.36705437 665.36879693 167.62117647 662.5625 167.875 C660.62246443 168.05300198 658.68244175 168.23114453 656.74243164 168.40942383 C641.96306845 169.76063141 627.1766807 171.02250686 612.38407898 172.21958923 C610.41506201 172.38056917 608.44653162 172.54746715 606.47802734 172.71459961 C604.33934998 172.89009546 602.19908102 173.04843786 600.05712891 173.17797852 C594.46547056 173.57044046 590.35033421 174.76007002 585.5 177.5625 C584.85981934 177.91965088 584.21963867 178.27680176 583.56005859 178.64477539 C577.90129984 181.88658001 572.84208372 185.62623526 568 190 C567.24332031 190.66386719 566.48664062 191.32773437 565.70703125 192.01171875 C554.01864044 202.89540107 546.68073993 217.14209379 543.12060547 232.59814453 C542.86433537 233.70066401 542.86433537 233.70066401 542.60288811 234.82545662 C540.702031 243.12321279 539.05475769 251.47013039 537.42694473 259.82497787 C536.8651945 262.70759411 536.29926029 265.58936402 535.73239136 268.47097778 C534.3247576 275.63071437 532.92372466 282.79173881 531.52294922 289.95281982 C530.14663599 296.98751202 528.76650201 304.02144254 527.3828125 311.0546875 C527.19239946 312.02440239 527.00198643 312.99411728 526.8058033 313.99321747 C524.31371818 326.6666783 521.73069209 339.30572248 518.72915649 351.87008667 C517.48574905 357.19134972 516.68326452 362.28013366 516.46064758 367.74539185 C515.46925803 382.83301547 501.3227342 393.06087833 490.80722046 402.48760986 C487.21550533 405.73207166 484.05326054 409.18785037 480.8997345 412.85687256 C477.38074896 416.82670859 473.58140326 420.51938425 469.8125 424.25 C468.52049683 425.53632324 468.52049683 425.53632324 467.20239258 426.84863281 C463.54986017 430.48494939 459.89136365 434.11524371 456.23339844 437.74609375 C453.54934844 440.41197597 450.86836759 443.0809181 448.1875 445.75 C447.37063721 446.55856445 446.55377441 447.36712891 445.7121582 448.20019531 C442.25752307 451.64015728 438.86851058 455.08644308 435.69189453 458.78613281 C427.8137921 467.93761531 419.07247894 476.38089374 410.58530998 484.96313095 C407.40846291 488.17577267 404.24110588 491.39664911 401.09472656 494.63916016 C398.02688508 497.80037212 394.93700622 500.93843667 391.83084488 504.06198883 C390.66136494 505.2454465 389.49959745 506.43658357 388.34630966 507.63582611 C380.84846662 515.41778765 374.89711674 519.79008109 364 522 C362.0135826 522.51563249 360.02890067 523.03804828 358.046875 523.5703125 C355.94888786 524.09245954 353.8498658 524.61046021 351.75 525.125 C349.9541748 525.56984741 349.9541748 525.56984741 348.12207031 526.02368164 C341.18955688 527.73670309 334.25157908 529.42708224 327.3125 531.11328125 C324.94946771 531.68763057 322.58643642 532.26198399 320.22341919 532.83639526 C318.56256104 533.24002668 316.90165128 533.64344574 315.24069214 534.04666138 C303.30631355 536.94556614 291.38513771 539.89526561 279.47265625 542.8828125 C278.7963554 543.05240856 278.12005455 543.22200462 277.42325974 543.39673996 C273.95487756 544.26661155 270.4865788 545.13681541 267.01831055 546.00714111 C246.45281307 551.1676986 225.88251944 556.28681941 205.23681641 561.11914062 C203.80499352 561.45434382 202.37318962 561.78962806 200.94140625 562.125 C200.26259399 562.2839978 199.58378174 562.44299561 198.88439941 562.60681152 C190.99455965 564.46146427 183.1368631 566.44139813 175.27783203 568.42163086 C166.90323566 570.53001761 158.51847718 572.5931265 150.125 574.625 C149.46790039 574.78413879 148.81080078 574.94327759 148.13378906 575.10723877 C139.60737525 577.17111142 131.07789403 579.22215795 122.54742432 581.26919556 C116.76059516 582.65784895 110.97402044 584.04756084 105.1875 585.4375 C104.02317444 585.71706543 102.85884888 585.99663086 101.65924072 586.28466797 C85.51142918 590.1639345 69.38000885 594.10024562 53.28588867 598.19702148 C44.89241104 600.32643134 36.48048731 602.24830896 28 604 C29.77991025 600.19278668 32.19596665 597.40610264 35.0625 594.375 C36.06151048 593.30107193 37.06020404 592.22684896 38.05859375 591.15234375 C38.55601074 590.6197998 39.05342773 590.08725586 39.56591797 589.53857422 C46.34808408 582.26223598 52.7712159 574.75359044 59 567 C59.45777832 566.43120117 59.91555664 565.86240234 60.38720703 565.27636719 C65.31139546 559.15529311 70.21315247 553.01788406 75.04736328 546.82543945 C80.19276243 540.23520314 85.46720387 533.76386805 90.80151367 527.32568359 C94.49965645 522.85221375 98.12489511 518.33196293 101.6875 513.75 C105.62649191 508.68558183 109.70278968 503.7663077 113.87573242 498.89355469 C117.18852295 495.00695517 120.36669546 491.03227182 123.5 487 C127.57394142 481.75802578 131.78020638 476.65567235 136.09033203 471.60668945 C139.40172851 467.72328147 142.61550366 463.77668046 145.78515625 459.77734375 C148.60099836 456.24636714 151.45806766 452.74979667 154.3125 449.25 C158.49033434 444.12339762 162.61945656 438.96411475 166.6875 433.75 C170.89547925 428.36011492 175.21704947 423.08586648 179.61328125 417.84765625 C184.56524623 411.93933797 189.41798045 405.94935695 194.27734375 399.96484375 C194.85121826 399.25811523 195.42509277 398.55138672 196.01635742 397.82324219 C197.14328019 396.4349419 198.26976922 395.04628938 199.39575195 393.65722656 C202.56844499 389.74682267 205.76745499 385.86109543 209 382 C207.53383493 378.50913078 205.66719588 376.58281186 202.8125 374.125 C198.34036225 370.20139285 193.96356982 366.19585909 189.625 362.125 C181.22206635 354.26074307 172.81309548 346.4084521 164.1171875 338.8671875 C160.89111482 336.02205329 157.7326456 333.10367121 154.56689453 330.19189453 C149.74415109 325.75776372 144.8765888 321.3748176 140 317 C137.49687583 314.74797293 134.99453386 312.49507877 132.4921875 310.2421875 C130.85260121 308.76707382 129.21200345 307.29308348 127.5703125 305.8203125 C122.9796939 301.69902232 118.41552893 297.55126212 113.875 293.375 C110.61609506 290.37819989 107.34500451 287.40085453 104 284.5 C100.54758091 281.49726575 97.1390493 278.44888409 93.75 275.375 C93.24210937 274.91931641 92.73421875 274.46363281 92.2109375 273.99414062 C86.97597064 269.22311924 83.74691272 265.13489406 81.546875 258.359375 C81.33002045 257.70168625 81.11316589 257.0439975 80.88973999 256.36637878 C80.16637849 254.16408514 79.45830168 251.95717894 78.75 249.75 C78.23126618 248.16057498 77.71154417 246.57147218 77.19091797 244.98266602 C76.05785029 241.51850723 74.93138352 238.05229208 73.80957031 234.58447266 C71.93599944 228.79537646 70.04329419 223.01262674 68.1484375 217.23046875 C64.08533606 204.82474376 60.04077626 192.41301195 56 180 C55.69729187 179.07018311 55.39458374 178.14036621 55.08270264 177.18237305 C53.64051553 172.7524089 52.19849657 168.32239004 50.7565918 163.89233398 C50.19189568 162.15738895 49.62719841 160.42244429 49.0625 158.6875 C48.78330719 157.82971954 48.50411438 156.97193909 48.21646118 156.08816528 C43.25575739 140.8480668 38.28864413 125.61006438 33.3125 110.375 C32.94997131 109.26484528 32.58744263 108.15469055 32.21392822 107.01089478 C28.05805696 94.28891359 23.87273349 81.57793338 19.61346436 68.89019775 C0 10.41816591 0 10.41816591 0 0 Z " fill="#0E7980" transform="translate(185,208)"/>
<path d="M0 0 C4.24507751 1.66696946 7.15684355 4.82749434 10.375 7.9375 C16.69653589 13.92575622 23.31025175 19.32616061 30.21582031 24.61865234 C33.2832336 26.99350516 36.29329314 29.43938736 39.3125 31.875 C46.78840568 37.88212735 54.4032843 43.70046398 62.03662109 49.50537109 C74.62101158 59.08528138 87.08174635 68.82661623 99.5546875 78.55078125 C101.05718811 79.72148709 102.55979193 80.89206046 104.0625 82.0625 C104.8057251 82.64153076 105.5489502 83.22056152 106.31469727 83.81713867 C110.68838843 87.21910996 115.08283131 90.59179957 119.49487305 93.94384766 C126.51963859 99.28186434 133.42697253 104.73528876 140.2512207 110.32739258 C144.38478521 113.70855892 148.5649888 117.01328732 152.8125 120.25 C157.64520757 123.93349294 162.37332126 127.72536069 167.0625 131.58984375 C175.62144823 138.61227867 184.29019725 145.49203444 193.08764648 152.21289062 C197.89553379 155.89583916 202.62222602 159.67605041 207.34375 163.46875 C211.54187207 166.83931618 215.76111649 170.18086858 220 173.5 C224.8569574 177.30428539 229.68722392 181.13997867 234.5 185 C241.62846539 190.71583181 248.80729907 196.36534998 256 202 C258.41732518 203.89499513 260.83395872 205.79086824 263.25 207.6875 C263.83716797 208.14833984 264.42433594 208.60917969 265.02929688 209.08398438 C268.38939336 211.72433077 271.73287228 214.3837365 275.0625 217.0625 C280.41852856 221.3595752 285.86599534 225.53496623 291.31787109 229.70898438 C292.9926544 230.99436233 294.66300664 232.28528078 296.33203125 233.578125 C303.13489643 238.84291618 310.01004012 243.98515904 317 249 C315.45555924 252.48509931 313.37524647 255.14322337 310.9375 258.0625 C310.13183594 259.03316406 309.32617188 260.00382812 308.49609375 261.00390625 C307.67238281 261.99261719 306.84867187 262.98132813 306 264 C304.49803678 265.8317253 302.99799201 267.6650256 301.5 269.5 C283.5 291.5 283.5 291.5 281.23046875 294.2734375 C279.79500065 296.02817784 278.36006204 297.78335155 276.92578125 299.5390625 C276.22839844 300.39242188 275.53101563 301.24578125 274.8125 302.125 C274.07515625 303.02734375 273.3378125 303.9296875 272.578125 304.859375 C270.61814634 307.25211694 268.64648071 309.63494218 266.671875 312.015625 C260.49136008 319.47536277 254.42213797 326.97925696 248.55859375 334.69140625 C245.08177919 339.22740113 241.43968185 343.62974769 237.82055664 348.05224609 C234.42844849 352.20876594 231.11710805 356.41321861 227.875 360.6875 C222.81640764 367.32690247 217.44462331 373.67554212 212 380 C207.74569358 379.48948323 205.59146606 377.06029142 202.5625 374.1875 C201.48964778 373.1796189 200.41672883 372.17180882 199.34375 371.1640625 C198.79203125 370.64102539 198.2403125 370.11798828 197.671875 369.57910156 C194.99219459 367.04811837 192.27547089 364.55767711 189.5625 362.0625 C186.22804936 358.98577984 182.8971137 355.90530192 179.5703125 352.8203125 C174.46469362 348.08974052 169.346095 343.38683168 164.08203125 338.83203125 C160.86508207 336.00135739 157.7202932 333.09232984 154.56665039 330.19165039 C149.74396118 325.75763061 144.87650331 321.37474091 140 317 C137.49687583 314.74797293 134.99453386 312.49507877 132.4921875 310.2421875 C130.85260121 308.76707382 129.21200345 307.29308348 127.5703125 305.8203125 C122.9796939 301.69902232 118.41552893 297.55126212 113.875 293.375 C110.61609506 290.37819989 107.34500451 287.40085453 104 284.5 C100.54758091 281.49726575 97.1390493 278.44888409 93.75 275.375 C93.24210937 274.91931641 92.73421875 274.46363281 92.2109375 273.99414062 C86.97597064 269.22311924 83.74691272 265.13489406 81.546875 258.359375 C81.33002045 257.70168625 81.11316589 257.0439975 80.88973999 256.36637878 C80.16637849 254.16408514 79.45830168 251.95717894 78.75 249.75 C78.23126618 248.16057498 77.71154417 246.57147218 77.19091797 244.98266602 C76.05785029 241.51850723 74.93138352 238.05229208 73.80957031 234.58447266 C71.93599944 228.79537646 70.04329419 223.01262674 68.1484375 217.23046875 C64.08533606 204.82474376 60.04077626 192.41301195 56 180 C55.69729187 179.07018311 55.39458374 178.14036621 55.08270264 177.18237305 C53.64051553 172.7524089 52.19849657 168.32239004 50.7565918 163.89233398 C50.19189568 162.15738895 49.62719841 160.42244429 49.0625 158.6875 C48.78330719 157.82971954 48.50411438 156.97193909 48.21646118 156.08816528 C43.25575739 140.8480668 38.28864413 125.61006438 33.3125 110.375 C32.94997131 109.26484528 32.58744263 108.15469055 32.21392822 107.01089478 C28.05805696 94.28891359 23.87273349 81.57793338 19.61346436 68.89019775 C0 10.41816591 0 10.41816591 0 0 Z " fill="#48B5B3" transform="translate(185,208)"/>
<path d="M0 0 C3.74938412 1.77344519 6.69338071 4.11157868 9.8125 6.8125 C10.37291992 7.29243408 10.93333984 7.77236816 11.51074219 8.2668457 C13.34450068 9.83997231 15.17256136 11.41953815 17 13 C18.29034891 14.11199736 19.58071365 15.22397633 20.87109375 16.3359375 C24.0258554 19.05845327 27.17058968 21.79224059 30.31103516 24.53125 C31.85159065 25.87094093 33.3999987 27.20158829 34.94921875 28.53125 C36.18091797 29.59859375 36.18091797 29.59859375 37.4375 30.6875 C38.13746094 31.28949219 38.83742188 31.89148438 39.55859375 32.51171875 C41 34 41 34 41 36 C41.99 36.33 42.98 36.66 44 37 C44 37.66 44 38.32 44 39 C44.52335938 39.21527344 45.04671875 39.43054688 45.5859375 39.65234375 C48.9563333 41.53387539 51.73298429 44.03369861 54.625 46.5625 C55.55759644 47.36941284 55.55759644 47.36941284 56.5090332 48.19262695 C60.10721395 51.31569008 63.66095451 54.48360795 67.1875 57.6875 C70.52227114 60.71712868 73.93287639 63.60608092 77.4375 66.4375 C82.26804859 70.34696941 86.87113095 74.45527831 91.4453125 78.66015625 C94.24884722 81.2279197 97.10344875 83.72896875 99.97265625 86.22265625 C102.33489173 88.29359487 104.66795853 90.39512848 107 92.5 C113.71892596 98.55317872 120.46722779 104.4494407 127.60546875 110.0078125 C130.24057172 112.20014939 132.589769 114.56186473 135 117 C137.64838456 119.54033817 140.32370552 122.05162224 143 124.5625 C143.69867187 125.22185547 144.39734375 125.88121094 145.1171875 126.56054688 C148.0114095 129.277293 150.86726019 131.89646987 154 134.33984375 C154.66 134.88769531 155.32 135.43554688 156 136 C156 136.66 156 137.32 156 138 C157.32 138.33 158.64 138.66 160 139 C148.78478234 142.33704329 137.57815753 145.42548927 126.14715576 147.93203735 C118.14374863 149.70204769 110.19423636 151.66642004 102.24609375 153.66796875 C100.83980612 154.02093155 99.43348415 154.37375755 98.02713013 154.72645569 C94.39547137 155.63757939 90.76422687 156.55034216 87.13310623 157.46360779 C83.76137451 158.31146553 80.38936242 159.15820604 77.01733398 160.00488281 C76.37111493 160.16714702 75.72489588 160.32941122 75.05909443 160.49659252 C73.10971921 160.98605112 71.16033148 161.47545985 69.2109375 161.96484375 C68.56580011 162.12680552 67.92066273 162.28876728 67.25597572 162.45563698 C43.28094273 168.47397719 19.30810552 174.48508978 -4.76098633 180.11865234 C-14.77157006 182.46217151 -24.75245353 184.90957121 -34.72216797 187.42163086 C-43.09676434 189.53001761 -51.48152282 191.5931265 -59.875 193.625 C-60.53209961 193.78413879 -61.18919922 193.94327759 -61.86621094 194.10723877 C-70.39262475 196.17111142 -78.92210597 198.22215795 -87.45257568 200.26919556 C-93.23940484 201.65784895 -99.02597956 203.04756084 -104.8125 204.4375 C-106.55898834 204.85684814 -106.55898834 204.85684814 -108.34075928 205.28466797 C-124.48857082 209.1639345 -140.61999115 213.10024562 -156.71411133 217.19702148 C-165.10758896 219.32643134 -173.51951269 221.24830896 -182 223 C-180.22008975 219.19278668 -177.80403335 216.40610264 -174.9375 213.375 C-173.93848952 212.30107193 -172.93979596 211.22684896 -171.94140625 210.15234375 C-171.44398926 209.6197998 -170.94657227 209.08725586 -170.43408203 208.53857422 C-163.65191592 201.26223598 -157.2287841 193.75359044 -151 186 C-150.54222168 185.43120117 -150.08444336 184.86240234 -149.61279297 184.27636719 C-144.68860454 178.15529311 -139.78684753 172.01788406 -134.95263672 165.82543945 C-129.80723757 159.23520314 -124.53279613 152.76386805 -119.19848633 146.32568359 C-115.50034355 141.85221375 -111.87510489 137.33196293 -108.3125 132.75 C-104.37350809 127.68558183 -100.29721032 122.7663077 -96.12426758 117.89355469 C-92.81147705 114.00695517 -89.63330454 110.03227182 -86.5 106 C-82.42605858 100.75802578 -78.21979362 95.65567235 -73.90966797 90.60668945 C-70.59827149 86.72328147 -67.38449634 82.77668046 -64.21484375 78.77734375 C-61.39900164 75.24636714 -58.54193234 71.74979667 -55.6875 68.25 C-51.50966566 63.12339762 -47.38054344 57.96411475 -43.3125 52.75 C-39.10452075 47.36011492 -34.78295053 42.08586648 -30.38671875 36.84765625 C-25.4453447 30.95197428 -20.60056678 24.97676356 -15.7578125 19 C-15.18844971 18.2977832 -14.61908691 17.59556641 -14.0324707 16.87207031 C-12.91809558 15.49717343 -11.80459548 14.12156668 -10.69213867 12.74511719 C-7.19811729 8.43364501 -3.62816461 4.19931497 0 0 Z " fill="#0D787F" transform="translate(395,589)"/>
<path d="M0 0 C0.66 0.99 1.32 1.98 2 3 C1.24904053 3.74572266 0.49808105 4.49144531 -0.27563477 5.25976562 C-3.0943374 8.06019739 -5.90958919 10.86407745 -8.72387695 13.66894531 C-9.93617248 14.87625065 -11.1493687 16.08265234 -12.36352539 17.28808594 C-14.12110372 19.03336339 -15.87528209 20.78200052 -17.62890625 22.53125 C-18.16149551 23.05867798 -18.69408478 23.58610596 -19.24281311 24.1295166 C-22.05323485 26.93953013 -24.73191738 29.81287556 -27.32397461 32.82617188 C-31.39303788 37.52430138 -35.77209515 41.87945033 -40.1875 46.25 C-41.04883545 47.10754883 -41.9101709 47.96509766 -42.79760742 48.84863281 C-46.45013983 52.48494939 -50.10863635 56.11524371 -53.76660156 59.74609375 C-56.45065156 62.41197597 -59.13163241 65.0809181 -61.8125 67.75 C-62.62936279 68.55856445 -63.44622559 69.36712891 -64.2878418 70.20019531 C-67.74014728 73.63783752 -71.12512141 77.08052726 -74.29492188 80.78173828 C-79.39516724 86.70681871 -84.96686 92.19369379 -90.46875 97.7421875 C-91.35620155 98.63762457 -91.35620155 98.63762457 -92.26158142 99.55115128 C-95.38523373 102.70134057 -98.512421 105.84797621 -101.64208984 108.9921875 C-104.22109035 111.58458838 -106.79260015 114.18409113 -109.35791016 116.79003906 C-112.47364493 119.95509848 -115.60148363 123.10769869 -118.73841858 126.25174332 C-119.92595502 127.44597825 -121.10924431 128.64445279 -122.28807068 129.84728622 C-123.93632594 131.52721837 -125.59972599 133.19062731 -127.26757812 134.85107422 C-127.7457045 135.34560593 -128.22383087 135.84013763 -128.71644592 136.34965515 C-132.18488059 139.75567786 -135.27212206 141.02644489 -140 142 C-143.05044699 141.91028097 -143.91306158 141.07948655 -146.1875 139 C-147.12749084 138.00234101 -148.06455536 137.00192294 -149 136 C-158.08893734 126.61987229 -158.08893734 126.61987229 -168.23046875 118.4296875 C-168.81441406 117.95789063 -169.39835938 117.48609375 -170 117 C-170 116.34 -170 115.68 -170 115 C-170.54527344 114.77441406 -171.09054687 114.54882812 -171.65234375 114.31640625 C-174.69801578 112.60860014 -177.05339462 110.32960891 -179.5625 107.9375 C-183.53320039 104.2160785 -187.56475168 100.65875935 -191.8125 97.25 C-195.50427068 94.27973087 -198.85430466 91.20447017 -202.140625 87.80078125 C-205.26867042 84.77130869 -208.70828923 82.12369235 -212.09765625 79.39453125 C-216.00770463 76.16860977 -219.72815065 72.75597997 -223.4609375 69.328125 C-226.92099032 66.15552272 -230.44752237 63.06832395 -234 60 C-234.51997559 59.54834473 -235.03995117 59.09668945 -235.57568359 58.63134766 C-243.8581328 51.36650896 -243.8581328 51.36650896 -252.5625 44.625 C-255.96376771 42.1585416 -258.33814978 39.26076652 -261 36 C-262.87843244 34.24453492 -264.81652083 32.57756652 -266.7734375 30.91015625 C-269.16319344 28.85999721 -271.48690325 26.74756846 -273.8125 24.625 C-278.38446925 20.48676344 -283.12546352 16.59519808 -287.9453125 12.75 C-288.96238281 11.88375 -288.96238281 11.88375 -290 11 C-290 10.67 -290 10.34 -290 10 C-280.45584923 8.860881 -270.89884258 8.61242592 -261.30078125 8.31640625 C-259.42418769 8.25625955 -257.54760093 8.19590047 -255.67102051 8.13534546 C-250.60790425 7.97317535 -245.54464454 7.81600658 -240.48132706 7.66025925 C-237.29703914 7.56202303 -234.1127948 7.46246903 -230.92855835 7.36257935 C-197.86227016 6.32746533 -164.79423035 5.48381691 -131.7198143 4.76030922 C-127.29757564 4.66352493 -122.87534545 4.56636277 -118.453125 4.46875 C-117.59343361 4.44978039 -116.73374222 4.43081078 -115.84799957 4.41126633 C-97.97171801 4.01481813 -80.09839958 3.53039438 -62.22558212 3.00142288 C-60.11228439 2.93897122 -57.99896982 2.87712034 -55.88565063 2.81539917 C-42.75401415 2.43055762 -29.62351822 2.0140434 -16.49609375 1.50390625 C-15.51681412 1.4682103 -14.53753448 1.43251434 -13.52857971 1.39573669 C-8.93932345 1.20831356 -4.51774479 0.9029843 0 0 Z " fill="#15888E" transform="translate(695,586)"/>
<path d="M0 0 C3.88058168 0.54764221 6.18155348 1.55991794 9.265625 3.95703125 C10.06444092 4.56893311 10.86325684 5.18083496 11.6862793 5.8112793 C12.53230713 6.47168213 13.37833496 7.13208496 14.25 7.8125 C16.05191985 9.19202059 17.85532881 10.56959809 19.66015625 11.9453125 C20.56008301 12.63270508 21.46000977 13.32009766 22.38720703 14.02832031 C28.14419793 18.37269132 34.07902899 22.46693624 39.99365234 26.59228516 C41.89711639 27.92781371 43.78845485 29.27851147 45.67578125 30.63671875 C67.0598913 45.98292974 89.17538719 60.38533414 111.45361328 74.39208984 C114.0589295 76.0372109 116.65373466 77.69782593 119.24609375 79.36328125 C131.31128052 87.10665935 143.51287051 94.59947839 155.77853394 102.01864624 C163.90322512 106.93364604 171.99490445 111.89234043 180 117 C180.58749023 117.37479492 181.17498047 117.74958984 181.78027344 118.13574219 C191.63705543 124.45558315 191.63705543 124.45558315 194 128 C188.0676827 129.23846754 182.12904301 129.29186556 176.09375 129.46484375 C174.89610016 129.50235245 173.69845032 129.53986115 172.46450806 129.57850647 C169.16997185 129.68073421 165.87536542 129.7792561 162.58066559 129.87597656 C159.76876834 129.95912187 156.95696168 130.04513469 154.14515114 130.13115501 C145.92583588 130.38257448 137.70630527 130.62632678 129.48669434 130.86785889 C125.15026872 130.99535775 120.81389981 131.12471108 116.47753906 131.25439453 C89.21066942 132.06874574 61.94300921 132.84213172 34.671875 133.5 C33.3876062 133.53099981 33.3876062 133.53099981 32.07739258 133.56262589 C25.15015375 133.72967733 18.22290092 133.89615214 11.29562378 134.06160736 C-15.08224555 134.69175179 -41.45221569 135.44660966 -67.82080078 136.390625 C-68.97964783 136.43162323 -70.13849487 136.47262146 -71.3324585 136.51486206 C-73.44617446 136.59004762 -75.55983048 136.66695227 -77.67340088 136.74612427 C-82.45429582 136.91693986 -87.23578382 137.05053745 -92.01928711 137.11865234 C-93.3440934 137.14032974 -93.3440934 137.14032974 -94.69566345 137.16244507 C-98.00845944 136.92890827 -99.77337005 135.71625045 -102.1875 133.5 C-102.92355469 132.8503125 -103.65960938 132.200625 -104.41796875 131.53125 C-105.20107422 130.77328125 -105.20107422 130.77328125 -106 130 C-103.0480423 126.54726957 -100.09136356 123.09923752 -97.10546875 119.67578125 C-91.51112436 113.24043842 -86.191775 106.72562598 -81.13671875 99.85546875 C-78.33390912 96.1098493 -75.36385064 92.51831419 -72.3828125 88.9140625 C-69.70906048 85.64419527 -67.10060538 82.32807263 -64.5 79 C-59.74963696 72.92995556 -54.90680247 66.94463316 -50 61 C-48.88135352 59.64205631 -47.76287667 58.28397288 -46.64453125 56.92578125 C-44.81796063 54.70755554 -42.99128238 52.48941945 -41.1640625 50.27172852 C-36.42964934 44.52509064 -31.71055488 38.76621596 -27 33 C-25.50014304 31.16654964 -24.0001406 29.33321829 -22.5 27.5 C-21.7575 26.5925 -21.015 25.685 -20.25 24.75 C-13.5 16.5 -6.75 8.25 0 0 Z " fill="#209C9E" transform="translate(501,459)"/>
<path d="M0 0 C0.71929688 0.55816406 1.43859375 1.11632812 2.1796875 1.69140625 C10.45052486 8.4367336 20.20194188 18.83059842 24.09765625 28.8125 C24.39542969 29.534375 24.69320312 30.25625 25 31 C27.54775306 31.89386164 27.54775306 31.89386164 30 32 C29.01 32.495 29.01 32.495 28 33 C28.01087646 33.6396167 28.02175293 34.2792334 28.03295898 34.93823242 C28.10340021 42.43921683 27.66849587 49.83855093 27.0625 57.3125 C26.93198242 59.02276367 26.93198242 59.02276367 26.79882812 60.76757812 C26.30627473 67.01753341 26.30627473 67.01753341 26 70 C25.8906311 71.60524536 25.8906311 71.60524536 25.77905273 73.24291992 C25 76 25 76 22.74707031 77.29833984 C21.84053711 77.5298877 20.93400391 77.76143555 20 78 C19.20948242 78.21479004 18.41896484 78.42958008 17.60449219 78.65087891 C16.76047852 78.84085449 15.91646484 79.03083008 15.046875 79.2265625 C14.05510254 79.44981201 13.06333008 79.67306152 12.04150391 79.90307617 C10.95530762 80.14131104 9.86911133 80.3795459 8.75 80.625 C7.02595947 81.00652222 7.02595947 81.00652222 5.26708984 81.39575195 C-7.66019636 84.21241939 -20.65074506 86.71223166 -33.64550781 89.19580078 C-41.73520369 90.74596145 -49.78179719 92.36530117 -57.79833984 94.26489258 C-64.20999703 95.73702158 -70.67180831 96.97509129 -77.125 98.25 C-79.45084335 98.71146426 -81.77657721 99.17347784 -84.10231018 99.63549805 C-85.69750547 99.95231927 -87.29275116 100.26888686 -88.88804626 100.58520508 C-94.1712865 101.63350095 -99.45167112 102.69520121 -104.73046875 103.765625 C-129.9829 108.87956921 -155.28718235 113.9729001 -180.75 117.9375 C-181.47437256 118.05383789 -182.19874512 118.17017578 -182.94506836 118.29003906 C-188.21120261 119.06422952 -193.69882108 119.6230264 -199 119 C-201.4375 116.8125 -201.4375 116.8125 -203 114 C-203.556875 113.154375 -204.11375 112.30875 -204.6875 111.4375 C-206.87161789 107.38128106 -206.87161789 107.38128106 -207 105 C-205.50066418 102.69004766 -204.01646895 100.71412228 -202.25 98.625 C-201.22362501 97.36745947 -200.19759266 96.10963923 -199.171875 94.8515625 C-198.64271484 94.2112207 -198.11355469 93.57087891 -197.56835938 92.91113281 C-195.16251235 89.97947488 -192.8332988 86.98945992 -190.5 84 C-189.58110295 82.8304354 -188.661831 81.66116525 -187.7421875 80.4921875 C-185.93125825 78.18771898 -184.12425437 75.88025413 -182.3203125 73.5703125 C-176.87990648 66.61192944 -171.35345864 59.7320611 -165.76611328 52.89111328 C-162.44217582 48.80944831 -159.19218453 44.68553855 -156 40.5 C-147.45116148 29.3100569 -138.67020776 18.2472726 -129 8 C-128.23558594 7.18273437 -127.47117187 6.36546875 -126.68359375 5.5234375 C-92.0739813 -30.3638974 -38.4009656 -30.12921714 0 0 Z " fill="#2AA2A2" transform="translate(753,303)"/>
<path d="M0 0 C5.40371555 0.56216533 9.86387155 1.90732635 14.86328125 3.9921875 C15.60449219 4.29399933 16.34570312 4.59581116 17.109375 4.9067688 C19.51372354 5.88831897 21.91313949 6.88132635 24.3125 7.875 C25.97985078 8.55910839 27.64741451 9.24269802 29.31518555 9.92578125 C42.01580033 15.13811485 54.68456611 20.42792002 67.29980469 25.84375 C69.87573391 26.94678805 72.45665404 28.0372364 75.0390625 29.125 C76.50543 29.74947976 77.97159373 30.37443833 79.4375 31 C80.0766333 31.26683594 80.7157666 31.53367187 81.37426758 31.80859375 C84.46119986 33.14087144 86.83374257 34.39117384 89 37 C85.22926773 38.25691076 81.50068758 38.51388545 77.56640625 38.8671875 C76.71315765 38.94649002 75.85990906 39.02579254 74.98080444 39.10749817 C72.17503148 39.36705437 69.36879693 39.62117647 66.5625 39.875 C64.62246443 40.05300198 62.68244175 40.23114453 60.74243164 40.40942383 C45.96306845 41.76063141 31.1766807 43.02250686 16.38407898 44.21958923 C14.41506201 44.38056917 12.44653162 44.54746715 10.47802734 44.71459961 C8.33934998 44.89009546 6.19908102 45.04843786 4.05712891 45.17797852 C-1.53452944 45.57044046 -5.64966579 46.76007002 -10.5 49.5625 C-11.14018066 49.91965088 -11.78036133 50.27680176 -12.43994141 50.64477539 C-18.09870016 53.88658001 -23.15791628 57.62623526 -28 62 C-28.75667969 62.66386719 -29.51335937 63.32773437 -30.29296875 64.01171875 C-41.98135956 74.89540107 -49.31926007 89.14209379 -52.87939453 104.59814453 C-53.13566463 105.70066401 -53.13566463 105.70066401 -53.39711189 106.82545662 C-55.297969 115.12321279 -56.94524231 123.47013039 -58.57305527 131.82497787 C-59.1348055 134.70759411 -59.70073971 137.58936402 -60.26760864 140.47097778 C-61.6752424 147.63071437 -63.07627534 154.79173881 -64.47705078 161.95281982 C-73.55464944 208.35076988 -73.55464944 208.35076988 -78.41949463 229.46929932 C-79.30012207 233.3083757 -80.14979799 237.15408331 -81 241 C-81.66 241 -82.32 241 -83 241 C-83.33 243.64 -83.66 246.28 -84 249 C-87.44620861 247.8512638 -88.09169196 246.92418358 -90.1875 244.0625 C-90.71730469 243.35222656 -91.24710938 242.64195312 -91.79296875 241.91015625 C-93 240 -93 240 -93 238 C-93.66 238 -94.32 238 -95 238 C-96.3046875 236.5234375 -96.3046875 236.5234375 -97.875 234.375 C-100.99458677 230.24992659 -104.2506702 226.29097689 -107.625 222.375 C-108.12797607 221.78984619 -108.63095215 221.20469238 -109.14916992 220.60180664 C-111.95813132 217.34257044 -114.78664063 214.10131992 -117.62890625 210.87109375 C-118.22300293 210.19320801 -118.81709961 209.51532227 -119.42919922 208.81689453 C-120.58170046 207.50308792 -121.73814607 206.19272861 -122.89892578 204.88623047 C-125.18209426 202.28162796 -126.89306501 200.32080498 -128 197 C-128.66 197 -129.32 197 -130 197 C-131.35382149 195.51261765 -132.63139886 193.95569449 -133.875 192.375 C-137.50128869 187.83922411 -141.20275485 183.39347184 -145 179 C-150.7871469 172.28444855 -156.50057905 165.50832659 -161.9375 158.50390625 C-164.14607027 155.82266848 -166.5256107 153.43689855 -169 151 C-174.32784247 145.36540297 -179.52327959 139.67622324 -184.375 133.625 C-189.45435644 127.31234658 -195.00614941 121.47104622 -200.54199219 115.5625 C-202.46743872 113.49906099 -204.36971825 111.41717751 -206.25 109.3125 C-206.77078125 108.73113281 -207.2915625 108.14976562 -207.828125 107.55078125 C-209 106 -209 106 -210 103 C-210.66 103 -211.32 103 -212 103 C-213.49877503 101.34516392 -214.92488473 99.62409488 -216.3125 97.875 C-217.45138672 96.44800781 -217.45138672 96.44800781 -218.61328125 94.9921875 C-219.40089844 94.00476563 -220.18851563 93.01734375 -221 92 C-222.65706531 89.99174949 -224.32735226 87.99533554 -226 86 C-225.12827148 85.88519287 -224.25654297 85.77038574 -223.35839844 85.65209961 C-201.81585644 82.78041535 -180.53524393 79.15659829 -159.23535156 74.85107422 C-152.87322595 73.56786705 -146.49860965 72.34961627 -140.125 71.125 C-135.54615969 70.2394033 -130.96775178 69.35158027 -126.3894043 68.46343994 C-124.68841912 68.1335232 -122.98740714 67.80374465 -121.28637695 67.47406006 C-115.17764878 66.28996393 -109.06947535 65.10305629 -102.96185303 63.91326904 C-100.92998405 63.51782295 -98.89796461 63.12314898 -96.86578369 62.72930908 C-87.20321965 60.85610408 -77.56605275 58.96053479 -67.98828125 56.6862793 C-62.37591471 55.3973608 -56.7149786 54.34644464 -51.0625 53.25 C-38.74735391 50.83212113 -26.52498027 48.108821 -14.32055664 45.18457031 C-13.1268042 44.89936523 -11.93305176 44.61416016 -10.703125 44.3203125 C-9.64770508 44.06523926 -8.59228516 43.81016602 -7.50488281 43.54736328 C-5 43 -5 43 -3 43 C-2.92652344 41.48599609 -2.92652344 41.48599609 -2.8515625 39.94140625 C-2.17204724 26.60533083 -1.11074551 13.3063108 0 0 Z " fill="#168C91" transform="translate(781,336)"/>
<path d="M0 0 C5.40371555 0.56216533 9.86387155 1.90732635 14.86328125 3.9921875 C15.60449219 4.29399933 16.34570312 4.59581116 17.109375 4.9067688 C19.51372354 5.88831897 21.91313949 6.88132635 24.3125 7.875 C25.97985078 8.55910839 27.64741451 9.24269802 29.31518555 9.92578125 C42.01580033 15.13811485 54.68456611 20.42792002 67.29980469 25.84375 C69.87573391 26.94678805 72.45665404 28.0372364 75.0390625 29.125 C76.50543 29.74947976 77.97159373 30.37443833 79.4375 31 C80.0766333 31.26683594 80.7157666 31.53367187 81.37426758 31.80859375 C84.46119986 33.14087144 86.83374257 34.39117384 89 37 C85.22926773 38.25691076 81.50068758 38.51388545 77.56640625 38.8671875 C76.71315765 38.94649002 75.85990906 39.02579254 74.98080444 39.10749817 C72.17503148 39.36705437 69.36879693 39.62117647 66.5625 39.875 C64.62246443 40.05300198 62.68244175 40.23114453 60.74243164 40.40942383 C45.96310379 41.76062818 31.17677246 43.0230109 16.38415527 44.21949768 C14.41467235 44.3805979 12.44572483 44.54820307 10.47680664 44.71606445 C8.34245143 44.89036788 6.20620113 45.04461772 4.06811523 45.16479492 C-1.74307871 45.550886 -5.82798315 46.95733913 -10.8125 49.9375 C-14.79410223 52.22028528 -18.67153164 54.42526199 -23 56 C-20.66666667 53.66666667 -18.33333333 51.33333333 -16 49 C-17.32 48.34 -18.64 47.68 -20 47 C-17.5424552 46.33030409 -15.08405076 45.6641232 -12.625 45 C-11.92632813 44.80921875 -11.22765625 44.6184375 -10.5078125 44.421875 C-5.2265625 43 -5.2265625 43 -3 43 C-2.95101562 41.99066406 -2.90203125 40.98132813 -2.8515625 39.94140625 C-2.17204724 26.60533083 -1.11074551 13.3063108 0 0 Z " fill="#13848B" transform="translate(781,336)"/>
<path d="M0 0 C0.33 0.66 0.66 1.32 1 2 C0.34 1.67 -0.32 1.34 -1 1 C-0.67 0.67 -0.34 0.34 0 0 Z M-5 3 C-4.01 3 -3.02 3 -2 3 C-2 3.99 -2 4.98 -2 6 C-1.236875 6.12375 -0.47375 6.2475 0.3125 6.375 C3 7 3 7 6 9 C0.06 10.32 -5.88 11.64 -12 13 C-9.94803598 8.89607196 -8.10143155 6.32836557 -5 3 Z " fill="#167A82" transform="translate(225,799)"/>
<path d="M0 0 C1.32 0.66 2.64 1.32 4 2 C3.278125 2.556875 2.55625 3.11375 1.8125 3.6875 C-3.68871912 8.04225024 -3.68871912 8.04225024 -7 14 C-8.33333333 14.66666667 -9.66666667 15.33333333 -11 16 C-12.73425773 18.03317007 -12.73425773 18.03317007 -14 20 C-14.66 19.67 -15.32 19.34 -16 19 C-13.71005004 16.20692119 -11.41774846 13.41578188 -9.125 10.625 C-8.47402344 9.8309375 -7.82304687 9.036875 -7.15234375 8.21875 C-6.52714844 7.45820312 -5.90195312 6.69765625 -5.2578125 5.9140625 C-4.6817627 5.2123291 -4.10571289 4.5105957 -3.51220703 3.78759766 C-2 2 -2 2 0 0 Z " fill="#0B666F" transform="translate(395,589)"/>
<path d="M0 0 C2.19798983 0.98530579 3.82052548 1.81304737 5.5 3.5625 C7.27460185 5.26316011 8.61006256 5.58794182 11 6 C10.67 7.32 10.34 8.64 10 10 C8.33037631 8.52417192 6.6643694 7.04425109 5 5.5625 C4.071875 4.73878906 3.14375 3.91507813 2.1875 3.06640625 C1.465625 2.38449219 0.74375 1.70257812 0 1 C0 0.67 0 0.34 0 0 Z " fill="#30ACAA" transform="translate(336,534)"/>
<path d="M0 0 C-4.455 1.485 -4.455 1.485 -9 3 C-9 3.66 -9 4.32 -9 5 C-10.65 5 -12.3 5 -14 5 C-10.31629958 0.44954654 -5.59426382 -1.39856595 0 0 Z " fill="#179698" transform="translate(660,288)"/>
<path d="M0 0 C0.33 0.99 0.66 1.98 1 3 C-1.64 5.64 -4.28 8.28 -7 11 C-7 7.22089522 -6.00296038 6.53893899 -3.5 3.8125 C-2.8503125 3.09707031 -2.200625 2.38164062 -1.53125 1.64453125 C-1.0259375 1.10183594 -0.520625 0.55914062 0 0 Z " fill="#17979A" transform="translate(484,480)"/>
<path d="M0 0 C1.32 0.33 2.64 0.66 4 1 C2.73113036 2.12721436 1.45982438 3.25168658 0.1875 4.375 C-0.52019531 5.00148438 -1.22789062 5.62796875 -1.95703125 6.2734375 C-4 8 -4 8 -7 10 C-5.33248852 6.05860922 -2.77289351 3.2107188 0 0 Z " fill="#189699" transform="translate(501,459)"/>
<path d="M0 0 C3.16115776 1.36983503 3.9927092 1.9890638 6 5 C4.68 5.99 3.36 6.98 2 8 C1.34 5.36 0.68 2.72 0 0 Z " fill="#25A6A5" transform="translate(185,208)"/>
<path d="M0 0 C2.97 0.495 2.97 0.495 6 1 C5.67 1.66 5.34 2.32 5 3 C4.01 2.67 3.02 2.34 2 2 C1.67 4.64 1.34 7.28 1 10 C0.67 10 0.34 10 0 10 C0 6.7 0 3.4 0 0 Z " fill="#0B7882" transform="translate(781,336)"/>
<path d="M0 0 C2.10814567 4.21629134 2.17700355 6.39790775 2 11 C1.01 11 0.02 11 -1 11 C-0.67 7.37 -0.34 3.74 0 0 Z " fill="#1A7B83" transform="translate(364,216)"/>
<path d="M0 0 C0.99 0.33 1.98 0.66 3 1 C-0.465 3.97 -0.465 3.97 -4 7 C-4.66 6.67 -5.32 6.34 -6 6 C-4.02 4.02 -2.04 2.04 0 0 Z " fill="#DDEBE8" transform="translate(629,657)"/>
<path d="M0 0 C0.33 0 0.66 0 1 0 C1 2.97 1 5.94 1 9 C0.01 9 -0.98 9 -2 9 C-2.25 3.375 -2.25 3.375 0 0 Z " fill="#E4EDEA" transform="translate(354,318)"/>
<path d="M0 0 C-2.75924185 1.80411967 -3.88972103 2.0127245 -7.25 1.625 C-8.1575 1.41875 -9.065 1.2125 -10 1 C-9 -1 -9 -1 -7.25 -1.75 C-4.35569775 -2.07158914 -2.59934027 -1.22746624 0 0 Z " fill="#27868E" transform="translate(231,807)"/>
<path d="M0 0 C0.93065133 2.60582371 1.14917407 3.64198224 0.0625 6.25 C-0.4634375 7.11625 -0.4634375 7.11625 -1 8 C-1.66 7.34 -2.32 6.68 -3 6 C-2.63318342 3.06546739 -2.13562754 2.13562754 0 0 Z " fill="#1C9496" transform="translate(549,405)"/>
</svg>
